<?xml version="1.0" encoding="utf-8"?><svg viewBox="0 0 512 512" xmlns="http://www.w3.org/2000/svg" xmlns:xlink="http://www.w3.org/1999/xlink"><style>:root>svg{display:none}:root>svg:target{display:block}</style><svg fill="none" viewBox="0 0 30 30" id="adres-icon" xmlns="http://www.w3.org/2000/svg"><path d="M14.994 0C8.365 0 2.969 5.396 2.969 12.025c0 .755.069 1.516.214 2.258a11.842 11.842 0 00.887 2.774c1.295 3.05 4.144 7.735 10.396 12.754a.854.854 0 001.069 0c6.245-5.018 9.1-9.704 10.396-12.754a11.705 11.705 0 00.887-2.774c.138-.742.214-1.503.214-2.258C27.019 5.396 21.622 0 14.994 0zm10.138 13.987c0 .013-.006.026-.006.038-.006.032-.025.126-.057.27v.013a9.993 9.993 0 01-.698 2.05c-.006.007-.006.02-.012.026-1.176 2.786-3.755 7.037-9.365 11.673-5.61-4.636-8.189-8.887-9.365-11.673-.006-.007-.006-.02-.012-.026a10.651 10.651 0 01-.699-2.05v-.012c-.037-.145-.05-.24-.056-.27 0-.013-.006-.026-.006-.045a10.271 10.271 0 01-.19-1.962c0-5.692 4.636-10.327 10.328-10.327 5.692 0 10.327 4.635 10.327 10.327 0 .666-.063 1.327-.189 1.968z" fill="#000"/><path d="M14.994 4.522c-4.207 0-7.635 3.428-7.635 7.635 0 4.208 3.428 7.635 7.635 7.635 4.208 0 7.635-3.427 7.635-7.635 0-4.207-3.427-7.635-7.635-7.635zm0 13.572a5.944 5.944 0 01-5.937-5.937 5.948 5.948 0 015.937-5.937 5.948 5.948 0 015.937 5.937c0 3.27-2.66 5.937-5.937 5.937z" fill="#000"/></svg><svg fill="none" viewBox="0 0 16 29" id="arrow-black-left" xmlns="http://www.w3.org/2000/svg"><path d="M1.967 14.192l12.975-12.82a.794.794 0 000-1.136.817.817 0 00-1.15 0L.24 13.627a.794.794 0 000 1.136l13.553 13.385a.823.823 0 00.572.238.798.798 0 00.572-.238.794.794 0 000-1.136L1.967 14.192z" fill="#000"/></svg><svg fill="none" viewBox="0 0 17 29" id="arrow-black-right" xmlns="http://www.w3.org/2000/svg"><path d="M15.894 13.632L2.336.237a.818.818 0 00-1.15 0 .794.794 0 000 1.136l12.98 12.824-12.98 12.825a.794.794 0 000 1.136.823.823 0 00.572.238.798.798 0 00.572-.238l13.558-13.395c.319-.31.319-.822.006-1.131z" fill="#000"/></svg><svg fill="none" viewBox="0 0 12 8" id="arrow-down" xmlns="http://www.w3.org/2000/svg"><path fill-rule="evenodd" clip-rule="evenodd" d="M10.6 0L6 4.6 1.4 0 0 1.4l6 6 6-6L10.6 0z" fill="#C4C4C4"/></svg><svg fill="none" viewBox="0 0 16 29" id="arrow-left" xmlns="http://www.w3.org/2000/svg"><path d="M1.967 14.192l12.975-12.82a.794.794 0 000-1.136.817.817 0 00-1.15 0L.24 13.627a.794.794 0 000 1.136l13.553 13.385a.823.823 0 00.572.238.798.798 0 00.572-.238.794.794 0 000-1.136L1.967 14.192z" fill="#fff"/></svg><svg fill="none" viewBox="0 0 17 29" id="arrow-right" xmlns="http://www.w3.org/2000/svg"><path d="M15.894 13.632L2.336.237a.818.818 0 00-1.15 0 .794.794 0 000 1.136l12.98 12.824-12.98 12.825a.794.794 0 000 1.136.823.823 0 00.572.238.798.798 0 00.572-.238l13.558-13.395c.319-.31.319-.822.006-1.131z" fill="#fff"/></svg><svg fill="none" viewBox="0 0 30 23" id="basket" xmlns="http://www.w3.org/2000/svg"><path d="M29.999 0l-.929 2.5H26.66l-4.342 15H5.767L0 3.75h21.015l-.705 2.5H3.759L7.43 15h13.035l4.29-15H30zM10.624 18.75a1.876 1.876 0 10.001 3.751 1.876 1.876 0 00-.001-3.751zM19.249 10l-2.375 8.75a1.875 1.875 0 100 3.75 1.875 1.875 0 000-3.75L19.249 10z" fill="#2F3035"/></svg><svg fill="none" viewBox="0 0 30 23" id="basket-white" xmlns="http://www.w3.org/2000/svg"><path d="M29.999 0l-.929 2.5H26.66l-4.342 15H5.767L0 3.75h21.015l-.705 2.5H3.759L7.43 15h13.035l4.29-15H30zM10.624 18.75a1.876 1.876 0 10.001 3.751 1.876 1.876 0 00-.001-3.751zM19.249 10l-2.375 8.75a1.875 1.875 0 100 3.75 1.875 1.875 0 000-3.75L19.249 10z" fill="#fff"/></svg><svg fill="none" viewBox="0 0 18 17" id="box" xmlns="http://www.w3.org/2000/svg"><path d="M11.17 3.143h5.901v12.021c0 .518-.465.836-.97.836H1.893C1.388 16 1 15.602 1 15.084V3.143h5.823" stroke="#2F3035" stroke-width="1.5" stroke-miterlimit="10"/><path d="M11.385 3.143h5.632c.038 0 .077-.032.038-.064L14.958 1H3.113L1.016 3.079c-.039.032 0 .064.039.064h5.631" stroke="#2F3035" stroke-width="1.5" stroke-miterlimit="10"/><path d="M11.714 3.143L10.782 1h-3.4L6.357 3.143M11.714 3.143v4.286l-2.61-1.506-2.747 1.506V3.143M10.986 11.714H7.122c-.443 0-.765-.438-.765-.925v-.292c0-.536.362-.926.765-.926h3.824c.443 0 .765.439.765.926v.292c.04.536-.322.925-.725.925z" stroke="#2F3035" stroke-width="1.5" stroke-miterlimit="10"/></svg><svg fill="none" viewBox="0 0 8 6" id="checked-icon" xmlns="http://www.w3.org/2000/svg"><path fill-rule="evenodd" clip-rule="evenodd" d="M2.545 4.746L.636 2.866 0 3.493 2.545 6 8 .627 7.364 0 2.545 4.746z" fill="#fff"/></svg><svg fill="none" viewBox="0 0 20 28" id="comparsion" xmlns="http://www.w3.org/2000/svg"><rect x="16" y="15.771" width="4" height="11.726" rx="2" fill="#2F3035"/><rect x="8" y=".528" width="4" height="26.969" rx="2" fill="#2F3035"/><rect y="9.908" width="4" height="17.588" rx="2" fill="#2F3035"/></svg><svg fill="none" viewBox="0 0 30 30" id="facebook" xmlns="http://www.w3.org/2000/svg"><path d="M17.419 29.805zM17.719 29.753c-.06.012-.12.022-.18.032.06-.01.12-.02.18-.032zM16.707 29.903zM16.995 29.867zM18.127 29.672zM19.14 29.42c-.042.013-.085.024-.127.036l.127-.035zM18.834 29.505l-.14.036.14-.037zM18.433 29.605l-.148.033.148-.033zM16.262 29.947zM30 15c0-8.283-6.717-15-15-15C6.717 0 0 6.717 0 15c0 8.283 6.717 15 15 15l.264-.003V18.32H12.04v-3.756h3.223V11.8c0-3.205 1.956-4.95 4.816-4.95 1.369 0 2.546.103 2.889.148v3.35h-1.972c-1.555 0-1.857.74-1.857 1.824v2.392h3.72l-.485 3.756H19.14v11.1C25.41 27.623 30 21.848 30 15zM15.991 29.967zM15.513 29.99z" fill="#2F3035"/></svg><svg fill="none" viewBox="0 0 24 22" id="favorite" xmlns="http://www.w3.org/2000/svg"><path d="M12 8.229c.234-1.12 1.547-6.23 5.382-6.23C19.602 2 22 3.552 22 7.004c0 3.907-3.627 8.47-10 12.629-6.373-4.16-10-8.722-10-12.63C2 3.52 4.369 1.999 6.577 1.999c3.923 0 5.145 5.126 5.423 6.23zM0 7.003C0 11.07 3.06 16.483 12 22c8.94-5.516 12-10.93 12-14.997 0-7.962-9.648-9.028-12-3.737C9.662-1.996 0-1.004 0 7.003z" fill="#000"/></svg><svg fill="none" viewBox="0 0 24 22" id="favorite-active" xmlns="http://www.w3.org/2000/svg"><path d="M12 3.435C10.011-1.964 0-1.162 0 7.003 0 11.071 3.06 16.484 12 22c8.94-5.516 12-10.929 12-14.997 0-8.118-10-8.999-12-3.568z" fill="#1C62CD"/></svg><svg fill="none" viewBox="0 0 23 21" id="grid-btn" xmlns="http://www.w3.org/2000/svg"><path stroke="#2F3035" stroke-width="2" d="M1 1h21v19H1z"/><path fill="#2F3035" stroke="#2F3035" stroke-width="2" d="M7 6h2v2H7zM7 13h2v2H7zM14 6h2v2h-2zM14 13h2v2h-2z"/></svg><svg fill="none" viewBox="0 0 24 22" id="heart" xmlns="http://www.w3.org/2000/svg"><path d="M12 8.229c.234-1.12 1.547-6.23 5.382-6.23C19.602 2 22 3.552 22 7.004c0 3.907-3.627 8.47-10 12.629-6.373-4.16-10-8.722-10-12.63C2 3.52 4.369 1.999 6.577 1.999c3.923 0 5.145 5.126 5.423 6.23zM0 7.003C0 11.07 3.06 16.483 12 22c8.94-5.516 12-10.93 12-14.997 0-7.962-9.648-9.028-12-3.737C9.662-1.996 0-1.004 0 7.003z" fill="#2F3035"/></svg><svg fill="none" viewBox="0 0 18 22" id="house" xmlns="http://www.w3.org/2000/svg"><path d="M6.833 13.343a.5.5 0 00-.5.5V19.7a.5.5 0 01-.5.5H1.5a.5.5 0 01-.5-.5V8.087a.5.5 0 01.175-.38l7.5-6.428a.5.5 0 01.65 0l7.5 6.428a.5.5 0 01.175.38V19.7a.5.5 0 01-.5.5h-4.333a.5.5 0 01-.5-.5v-5.857a.5.5 0 00-.5-.5H6.833z" stroke="#2F3035" stroke-width="2" stroke-linecap="round" stroke-linejoin="round"/></svg><svg viewBox="0 0 423.761 423.761" id="icons-price" xmlns="http://www.w3.org/2000/svg"><path d="M342.012 237.535H213.264c12.956-9.977 26.38-19.162 37.94-28.02 2.867-2.19 5.657-4.442 8.411-6.712h82.396c11.703 0 21.185-9.483 21.185-21.184s-9.481-21.184-21.185-21.184H298.78c5.894-9.026 10.923-18.708 14.623-29.392 9.528-27.547 4.776-59.267-11.159-83.374-40.187-60.803-122.752-56.308-180.246-26.104-24.192 12.711-2.778 49.281 21.385 36.587 28.538-14.992 60.222-21.76 91.431-11.499 21.35 7.019 39.082 26.4 40.932 49.184 2.087 25.827-13.554 47.487-31.599 64.61H81.749c-11.7 0-21.185 9.484-21.185 21.184 0 11.701 9.484 21.184 21.185 21.184h107.966c-9.859 7.282-19.544 14.78-28.611 23.1a136.709 136.709 0 00-11.195 11.632h-68.16c-11.7 0-21.185 9.481-21.185 21.185 0 11.697 9.484 21.185 21.185 21.185h43.447c-13.767 38.236-9.431 81.645 21.55 113.604 42.853 44.213 116.362 33.372 166.114 9.132 24.564-11.969 3.073-48.498-21.386-36.588-38.515 18.773-109.106 28.839-127.392-22.721-8.79-24.789-4.176-45.482 7.19-63.422H342.01c11.703 0 21.185-9.487 21.185-21.185.001-11.703-9.48-21.202-21.183-21.202z" fill="#1c62cd" data-original="#000000"/></svg><svg viewBox="0 0 423.761 423.761" id="icons-price-old" xmlns="http://www.w3.org/2000/svg"><path d="M342.012 237.535H213.264c12.956-9.977 26.38-19.162 37.94-28.02 2.867-2.19 5.657-4.442 8.411-6.712h82.396c11.703 0 21.185-9.483 21.185-21.184s-9.481-21.184-21.185-21.184H298.78c5.894-9.026 10.923-18.708 14.623-29.392 9.528-27.547 4.776-59.267-11.159-83.374-40.187-60.803-122.752-56.308-180.246-26.104-24.192 12.711-2.778 49.281 21.385 36.587 28.538-14.992 60.222-21.76 91.431-11.499 21.35 7.019 39.082 26.4 40.932 49.184 2.087 25.827-13.554 47.487-31.599 64.61H81.749c-11.7 0-21.185 9.484-21.185 21.184 0 11.701 9.484 21.184 21.185 21.184h107.966c-9.859 7.282-19.544 14.78-28.611 23.1a136.709 136.709 0 00-11.195 11.632h-68.16c-11.7 0-21.185 9.481-21.185 21.185 0 11.697 9.484 21.185 21.185 21.185h43.447c-13.767 38.236-9.431 81.645 21.55 113.604 42.853 44.213 116.362 33.372 166.114 9.132 24.564-11.969 3.073-48.498-21.386-36.588-38.515 18.773-109.106 28.839-127.392-22.721-8.79-24.789-4.176-45.482 7.19-63.422H342.01c11.703 0 21.185-9.487 21.185-21.185.001-11.703-9.48-21.202-21.183-21.202z" fill="#c4c4c4" data-original="#000000"/></svg><svg fill="none" viewBox="0 0 30 30" id="instagram" xmlns="http://www.w3.org/2000/svg"><g clip-path="url(#atclip0)" fill="#2F3035"><path d="M15.005 7.297a7.697 7.697 0 00-7.698 7.698 7.697 7.697 0 007.698 7.697 7.697 7.697 0 007.697-7.697 7.697 7.697 0 00-7.697-7.698zm0 12.694a4.995 4.995 0 01-4.997-4.996 4.995 4.995 0 014.997-4.996A4.995 4.995 0 0120 14.995a4.994 4.994 0 01-4.996 4.996z"/><path d="M21.185.095c-2.76-.128-9.596-.122-12.359 0C6.4.21 4.257.795 2.531 2.522-.354 5.407.015 9.294.015 14.996c0 5.835-.325 9.632 2.516 12.473 2.896 2.895 6.84 2.516 12.474 2.516 5.78 0 7.775.004 9.818-.787 2.78-1.079 4.877-3.563 5.082-8.024.13-2.761.122-9.596 0-12.359-.248-5.266-3.074-8.46-8.72-8.72zm4.369 25.466c-1.892 1.89-4.515 1.722-10.585 1.722-6.25 0-8.757.092-10.585-1.741-2.107-2.097-1.725-5.463-1.725-10.567 0-6.906-.71-11.88 6.222-12.235 1.592-.056 2.061-.075 6.07-.075l.056.038c6.662 0 11.888-.698 12.202 6.232.07 1.582.087 2.057.087 6.06-.001 6.177.116 8.698-1.742 10.566z"/><path d="M23.008 8.792a1.799 1.799 0 100-3.597 1.799 1.799 0 000 3.597z"/></g><defs><clipPath id="atclip0"><path fill="#fff" d="M0 0h30v30H0z"/></clipPath></defs></svg><svg fill="none" viewBox="0 0 25 19" id="line-btn" xmlns="http://www.w3.org/2000/svg"><g opacity=".3" fill="#2F3035"><rect x="6" width="19" height="3" rx="1.5"/><rect x="6" y="8" width="19" height="3" rx="1.5"/><rect x="6" y="16" width="19" height="3" rx="1.5"/><rect width="3" height="3" rx="1.5"/><rect y="8" width="3" height="3" rx="1.5"/><rect y="16" width="3" height="3" rx="1.5"/></g></svg><svg fill="none" viewBox="0 0 6 9" id="link-arrow" xmlns="http://www.w3.org/2000/svg"><path d="M.229 7.888a.591.591 0 00-.025.912.809.809 0 001.039.022L5.79 4.96a.61.61 0 00-.025-.942L1.243.178A.809.809 0 00.203.2a.591.591 0 00.024.912l3.486 3.01a.5.5 0 010 .757L.229 7.888z" fill="#C4C4C4"/></svg><svg fill="none" viewBox="0 0 60 18" id="old-line" xmlns="http://www.w3.org/2000/svg"><path d="M.594 16.766L59.405 1.234" stroke="#C4C4C4" stroke-width=".5"/></svg><svg fill="none" viewBox="0 0 17 17" id="procent" xmlns="http://www.w3.org/2000/svg"><path d="M6.142 1.983c.595.677.892 1.593.892 2.748 0 1.155-.297 2.075-.892 2.758-.595.684-1.391 1.026-2.39 1.026-.997 0-1.793-.342-2.388-1.026C.776 6.806.482 5.886.482 4.731s.294-2.071.882-2.748C1.958 1.299 2.754.958 3.753.958c.998 0 1.794.341 2.39 1.025zm-2.39 4.922c.384 0 .681-.192.893-.574.219-.39.328-.923.328-1.6 0-.684-.11-1.217-.328-1.6-.212-.39-.51-.584-.892-.584-.376 0-.673.195-.892.584-.212.383-.318.916-.318 1.6 0 .677.106 1.21.318 1.6.219.382.516.574.892.574zM3.959 16H1.723l5.732-7.844 5.085-6.952h2.215L9.177 8.843 3.958 16zm11.156-6.347c.595.683.892 1.603.892 2.758s-.297 2.075-.892 2.758c-.595.677-1.39 1.016-2.389 1.016-.998 0-1.794-.339-2.39-1.016-.587-.683-.88-1.603-.88-2.758s.293-2.075.88-2.758c.596-.684 1.392-1.026 2.39-1.026.998 0 1.795.342 2.39 1.026zM11.833 14c.219.39.516.584.892.584s.673-.195.892-.585c.219-.39.328-.922.328-1.6 0-.676-.11-1.21-.328-1.599-.219-.39-.516-.584-.892-.584s-.673.195-.892.584c-.212.39-.318.923-.318 1.6s.106 1.21.318 1.6z" fill="#2F3035"/></svg><svg fill="none" viewBox="0 0 24 24" id="user" xmlns="http://www.w3.org/2000/svg"><path d="M20.823 18.096c-3.44-.794-6.64-1.49-5.09-4.418C20.453 4.766 16.983 0 12 0 6.918 0 3.536 4.949 8.268 13.678c1.597 2.945-1.725 3.641-5.09 4.418C.105 18.806-.01 20.332 0 23l.004 1h23.99l.005-.969c.012-2.688-.092-4.222-3.176-4.935z" fill="#2F3035"/></svg><svg fill="none" viewBox="0 0 30 30" id="vkontakte" xmlns="http://www.w3.org/2000/svg"><path d="M24.894 16.285c-.485-.613-.346-.885 0-1.433.006-.006 4.01-5.538 4.422-7.415h.003c.205-.684 0-1.187-.991-1.187h-3.28c-.835 0-1.22.431-1.427.914 0 0-1.67 3.997-4.032 6.588-.763.75-1.115.99-1.531.99-.206 0-.524-.24-.524-.925v-6.38c0-.82-.234-1.187-.925-1.187H11.45c-.524 0-.835.383-.835.739 0 .777 1.181.956 1.304 3.144v4.746c0 1.04-.189 1.231-.607 1.231-1.116 0-3.822-4.014-5.426-8.607-.323-.892-.64-1.252-1.48-1.252H1.124C.189 6.251 0 6.682 0 7.165c0 .853 1.115 5.091 5.185 10.691 2.713 3.823 6.532 5.894 10.008 5.894 2.088 0 2.343-.46 2.343-1.251 0-3.653-.189-3.998.858-3.998.485 0 1.32.24 3.27 2.084 2.228 2.186 2.595 3.165 3.842 3.165h3.28c.935 0 1.409-.46 1.136-1.367-.623-1.91-4.838-5.835-5.028-6.098z" fill="#2F3035"/></svg><svg fill="none" viewBox="0 0 30 30" id="youtube" xmlns="http://www.w3.org/2000/svg"><path d="M13.132 17.81l4.88-2.81-4.88-2.81v5.62z" fill="#2F3035"/><path d="M15 0C6.717 0 0 6.717 0 15c0 8.283 6.717 15 15 15 8.283 0 15-6.717 15-15 0-8.283-6.717-15-15-15zm9.373 15.015s0 3.042-.386 4.51a2.349 2.349 0 01-1.652 1.651c-1.467.387-7.335.387-7.335.387s-5.852 0-7.335-.402a2.349 2.349 0 01-1.652-1.652C5.627 18.057 5.627 15 5.627 15s0-3.042.386-4.509a2.396 2.396 0 011.652-1.667C9.132 8.438 15 8.438 15 8.438s5.868 0 7.334.401c.803.216 1.436.85 1.653 1.652.401 1.467.386 4.524.386 4.524z" fill="#2F3035"/></svg></svg>