<svg xmlns="http://www.w3.org/2000/svg" width="512" height="512" viewBox="0 0 423.761 423.761"><path d="M342.012 237.535H213.264c12.956-9.977 26.38-19.162 37.94-28.02 2.867-2.19 5.657-4.442 8.411-6.712h82.396c11.703 0 21.185-9.483 21.185-21.184s-9.481-21.184-21.185-21.184H298.78c5.894-9.026 10.923-18.708 14.623-29.392 9.528-27.547 4.776-59.267-11.159-83.374-40.187-60.803-122.752-56.308-180.246-26.104-24.192 12.711-2.778 49.281 21.385 36.587 28.538-14.992 60.222-21.76 91.431-11.499 21.35 7.019 39.082 26.4 40.932 49.184 2.087 25.827-13.554 47.487-31.599 64.61H81.749c-11.7 0-21.185 9.484-21.185 21.184 0 11.701 9.484 21.184 21.185 21.184h107.966c-9.859 7.282-19.544 14.78-28.611 23.1a136.709 136.709 0 00-11.195 11.632h-68.16c-11.7 0-21.185 9.481-21.185 21.185 0 11.697 9.484 21.185 21.185 21.185h43.447c-13.767 38.236-9.431 81.645 21.55 113.604 42.853 44.213 116.362 33.372 166.114 9.132 24.564-11.969 3.073-48.498-21.386-36.588-38.515 18.773-109.106 28.839-127.392-22.721-8.79-24.789-4.176-45.482 7.19-63.422H342.01c11.703 0 21.185-9.487 21.185-21.185.001-11.703-9.48-21.202-21.183-21.202z" fill="#1c62cd" data-original="#000000" xmlns="http://www.w3.org/2000/svg"/></svg>